<?xml version="1.0" encoding="utf-8"?>
<!-- Generator: Adobe Illustrator 19.2.1, SVG Export Plug-In . SVG Version: 6.00 Build 0)  -->
<svg version="1.1" id="Calque_1" xmlns="http://www.w3.org/2000/svg" xmlns:xlink="http://www.w3.org/1999/xlink" x="0px" y="0px"
	 viewBox="0 0 1200 1200" style="enable-background:new 0 0 1200 1200;" xml:space="preserve">
<style type="text/css">
	.st0{clip-path:url(#SVGID_2_);}
	.st1{clip-path:url(#SVGID_4_);}
	.st2{clip-path:url(#SVGID_6_);fill:#78B147;}
	.st3{opacity:0.15;clip-path:url(#SVGID_6_);}
	.st4{clip-path:url(#SVGID_8_);}
	.st5{clip-path:url(#SVGID_8_);fill:#333333;}
	.st6{clip-path:url(#SVGID_6_);fill:#404048;}
</style>
<g>
	<g>
		<defs>
			<rect id="SVGID_1_" x="128.2" y="130.8" width="943.5" height="938.4"/>
		</defs>
		<clipPath id="SVGID_2_">
			<use xlink:href="#SVGID_1_"  style="overflow:visible;"/>
		</clipPath>
		<g class="st0">
			<defs>
				<rect id="SVGID_3_" x="128.2" y="130.8" width="943.5" height="938.4"/>
			</defs>
			<clipPath id="SVGID_4_">
				<use xlink:href="#SVGID_3_"  style="overflow:visible;"/>
			</clipPath>
			<g class="st1">
				<defs>
					<rect id="SVGID_5_" x="128.2" y="130.8" width="943.5" height="938.4"/>
				</defs>
				<clipPath id="SVGID_6_">
					<use xlink:href="#SVGID_5_"  style="overflow:visible;"/>
				</clipPath>
				<path class="st2" d="M575.6,130.8c19.2,0,34.7,15.6,34.7,34.7c0,19.2-15.6,34.7-34.7,34.7c-100.9,0-195.8,39.3-267.2,110.7
					C237,382.4,197.7,477.3,197.7,578.2S237,774,308.4,845.4c71.4,71.4,166.3,110.7,267.2,110.7s195.8-39.3,267.2-110.7
					c71.4-71.4,110.7-166.3,110.7-267.2c0-19.2,15.6-34.7,34.7-34.7s34.7,15.6,34.7,34.7c0,119.5-46.5,231.9-131,316.3
					s-196.9,131-316.3,131s-231.9-46.5-316.3-131s-131-196.9-131-316.3s46.5-231.9,131-316.3S456.1,130.8,575.6,130.8"/>
				<path class="st2" d="M575.6,766.4c-51.9,0-98.9-21.1-133-55.2c-34.1-34.1-55.2-81.1-55.2-133s21.1-98.9,55.2-133
					c27.5-27.5,63.4-46.5,103.5-52.9c17-2.7,29.5-17.2,29.5-34.3c0-21.4-19.1-37.7-40.3-34.3c-55,8.6-104.3,34.7-142,72.4
					c-46.6,46.6-75.5,111.1-75.5,182.2s28.8,135.6,75.5,182.2s111.1,75.5,182.2,75.5c71.2,0,135.6-28.8,182.2-75.5
					c37.7-37.7,63.7-86.9,72.4-142c3.3-21.1-13-40.3-34.3-40.3c-17.2,0-31.7,12.5-34.3,29.5c-6.3,40.1-25.4,76-52.9,103.5
					C674.6,745.3,627.5,766.4,575.6,766.4"/>
				<g class="st3">
					<g>
						<defs>
							<rect id="SVGID_7_" x="532" y="534.3" width="539.7" height="534.9"/>
						</defs>
						<clipPath id="SVGID_8_">
							<use xlink:href="#SVGID_7_"  style="overflow:visible;"/>
						</clipPath>
						<path class="st4" d="M948.2,1065.4L835.7,952.3c-2.4-2.4-3.1-5.7-3.1-9.1v-97.9c0-1.4-1.5-2.9-1.5-4.4c0-1.6,0-3.3,0.6-4.9
							c2-4.8,6.5-8,11.7-8l16.7-0.1l85.4-0.5c3.5,0,6.8,1.3,9.2,3.8L1068,944.3c3.7,3.7,4.8,9.2,2.8,14.1c-2,4.8-6.7,8-11.9,8
							l-59.4,0.2l-27.9,0.1v89.7c0,5.2-3.8,10-8.6,11.9C958.1,1070.2,951.9,1069.1,948.2,1065.4"/>
						<polygon class="st5" points="563.3,534.3 860.1,827.8 999.5,966.5 971.6,966.6 971.6,1002 532,566.3 						"/>
					</g>
				</g>
				<path class="st2" d="M663.9,578.2c0,48.8-39.5,88.3-88.3,88.3c-48.8,0-88.3-39.5-88.3-88.3c0-48.8,39.5-88.3,88.3-88.3
					C624.4,489.9,663.9,529.4,663.9,578.2"/>
				<path class="st6" d="M570.4,537.5l98.3-98.3l98.3-98.3l98.3-98.3l98.3-98.3c1.7-1.7,3.5-3.2,5.4-4.5c1.9-1.3,4-2.3,6-3.2
					c2.1-0.8,4.2-1.5,6.4-1.9c2.2-0.4,4.4-0.6,6.6-0.6c2.2,0,4.4,0.2,6.6,0.6c2.2,0.4,4.3,1.1,6.4,1.9c2.1,0.9,4.1,1.9,6,3.2
					c1.9,1.3,3.8,2.8,5.5,4.5c3.4,3.4,5.9,7.3,7.6,11.5c1.7,4.2,2.5,8.6,2.5,13.1c0,4.4-0.8,8.9-2.5,13.1c-1.7,4.2-4.2,8.1-7.6,11.5
					l-98.3,98.3L816.1,390l-98.3,98.3l-98.3,98.3l-42.9,6.6l-12.8-12.7L570.4,537.5z"/>
				<path class="st6" d="M791.6,134.2c8.9,0,17.8,3.4,24.6,10.2l196.6,196.6c13.6,13.6,13.6,35.6,0,49.1
					c-13.6,13.6-35.6,13.6-49.1,0L767,193.5c-13.6-13.6-13.6-35.6,0-49.1C773.8,137.5,782.7,134.2,791.6,134.2"/>
			</g>
		</g>
	</g>
</g>
</svg>
