<?xml version="1.0" encoding="utf-8"?>
<!-- Generator: Adobe Illustrator 19.2.1, SVG Export Plug-In . SVG Version: 6.00 Build 0)  -->
<svg version="1.1" id="Calque_1" xmlns="http://www.w3.org/2000/svg" xmlns:xlink="http://www.w3.org/1999/xlink" x="0px" y="0px"
	 viewBox="0 0 2732 2732" style="enable-background:new 0 0 2732 2732;" xml:space="preserve">
<style type="text/css">
	.st0{opacity:0.83;fill:#E1D4C4;}
	.st1{filter:url(#Adobe_OpacityMaskFilter);}
	.st2{opacity:0.83;fill:#78B147;}
	.st3{clip-path:url(#SVGID_4_);}
	.st4{clip-path:url(#SVGID_6_);}
	.st5{clip-path:url(#SVGID_8_);fill:#FFFFFF;}
	.st6{opacity:0.15;clip-path:url(#SVGID_8_);}
	.st7{clip-path:url(#SVGID_10_);fill:#FFFFFF;}
	.st8{clip-path:url(#SVGID_10_);fill:#CECECE;}
	.st9{opacity:0.7;clip-path:url(#SVGID_8_);}
	.st10{clip-path:url(#SVGID_12_);fill:#FFFFFF;}
</style>
<rect y="0" class="st0" width="2732" height="2732"/>
<g id="man-person-wall-sitting.psb">
	<defs>
		<rect id="SVGID_1_" x="298.5" y="801" width="3431" height="1931"/>
	</defs>
	<clipPath id="SVGID_2_">
		<use xlink:href="#SVGID_1_"  style="overflow:visible;"/>
	</clipPath>
	<defs>
		<filter id="Adobe_OpacityMaskFilter" filterUnits="userSpaceOnUse" x="298.5" y="801" width="3431" height="1931">
			<feColorMatrix  type="matrix" values="1 0 0 0 0  0 1 0 0 0  0 0 1 0 0  0 0 0 1 0"/>
		</filter>
	</defs>
	<mask maskUnits="userSpaceOnUse" x="298.5" y="801" width="3431" height="1931" id="man-person-wall-sitting_1_">
		<g id="man-person-wall-sittingMasque_d_x27_opacité_2_" class="st1">
			<g style="clip-path:url(#SVGID_2_);">
				
					<image style="overflow:visible;" width="3815" height="3304" id="man-person-wall-sittingMasque_d_x27_opacité_3_" xlink:href="1FC62F54.jpg"  transform="matrix(1 0 0 1 -85.5 -378.5)">
				</image>
			</g>
		</g>
	</mask>
	<g style="clip-path:url(#SVGID_2_);mask:url(#man-person-wall-sitting_1_);">
		
			<image style="overflow:visible;" width="3431" height="1931" id="man-person-wall-sitting" xlink:href="1FC62F54.png"  transform="matrix(1 0 0 1 298.5 801)">
		</image>
	</g>
</g>
<rect y="0" class="st2" width="2732" height="2732"/>
<g id="Logo">
	<g>
		<defs>
			<rect id="SVGID_3_" x="871.4" y="720.9" width="989.2" height="435.3"/>
		</defs>
		<clipPath id="SVGID_4_">
			<use xlink:href="#SVGID_3_"  style="overflow:visible;"/>
		</clipPath>
		<g class="st3">
			<defs>
				<rect id="SVGID_5_" x="871.4" y="720.9" width="989.2" height="435.3"/>
			</defs>
			<clipPath id="SVGID_6_">
				<use xlink:href="#SVGID_5_"  style="overflow:visible;"/>
			</clipPath>
			<g class="st4">
				<defs>
					<rect id="SVGID_7_" x="871.4" y="720.9" width="989.2" height="435.3"/>
				</defs>
				<clipPath id="SVGID_8_">
					<use xlink:href="#SVGID_7_"  style="overflow:visible;"/>
				</clipPath>
				<path class="st5" d="M914.9,1097.7c0.9-0.2,1.8-0.3,2.9-0.4c1.1-0.1,2.1-0.1,3-0.1c1,0,2,0.1,2.9,0.3c0.9,0.2,1.8,0.6,2.5,1.1
					c0.7,0.5,1.3,1.2,1.7,2c0.4,0.8,0.6,1.8,0.6,3c0,1.8-0.5,3.3-1.5,4.5c-1,1.1-2.3,1.9-3.8,2.3l1.6,1.2l5.9,9.3h-3.3l-6.5-10.2
					l-3.3-0.5v10.7h-2.8V1097.7z M921,1099.6h-0.9c-0.3,0-0.6,0-0.9,0c-0.3,0-0.6,0-0.8,0.1c-0.3,0-0.5,0.1-0.6,0.1v8.7h2.6
					c1.5,0,2.8-0.4,3.8-1.1c1-0.8,1.5-2,1.5-3.6c0-1.2-0.4-2.2-1.2-3S922.5,1099.6,921,1099.6"/>
				<polygon class="st5" points="940.3,1097.5 953.2,1097.5 953.2,1099.9 943.1,1099.9 943.1,1107.7 952.3,1107.7 952.3,1110.1 
					943.1,1110.1 943.1,1118.5 953.3,1118.5 953.3,1121 940.3,1121 				"/>
				<polygon class="st5" points="977.7,1121 963.8,1121 963.8,1097.5 966.6,1097.5 966.6,1118.5 977.7,1118.5 				"/>
				<path class="st5" d="M986.5,1097.5h12.8v2.5h-10v7.7h9.2v2.5h-9.2v8.4h10.2v2.5h-13V1097.5z M994.7,1095.7h-2.5l-5.3-3.3v-0.7
					h3.8L994.7,1095.7z"/>
				<polygon class="st5" points="1016.1,1113.6 1016.9,1117.2 1016.9,1117.2 1017.8,1113.6 1023.5,1097.5 1026.3,1097.5 
					1017.4,1121.4 1016.1,1121.4 1007,1097.5 1010.1,1097.5 				"/>
				<polygon class="st5" points="1034.5,1097.5 1047.3,1097.5 1047.3,1099.9 1037.3,1099.9 1037.3,1107.7 1046.4,1107.7 
					1046.4,1110.1 1037.3,1110.1 1037.3,1118.5 1047.5,1118.5 1047.5,1121 1034.5,1121 				"/>
				<path class="st5" d="M1072.3,1097.5c0.4-0.1,0.9-0.1,1.4-0.2c0.5,0,1.1-0.1,1.6-0.1c0.6,0,1.1,0,1.7,0c0.5,0,1.1,0,1.5,0
					c1.9,0,3.5,0.3,4.9,0.9c1.4,0.6,2.5,1.4,3.4,2.4c0.9,1,1.6,2.3,2,3.8c0.4,1.5,0.7,3.1,0.7,4.8c0,1.6-0.2,3.1-0.6,4.6
					c-0.4,1.5-1.1,2.8-2,3.9c-0.9,1.1-2.1,2-3.5,2.7c-1.4,0.7-3.2,1-5.2,1c-0.4,0-0.8,0-1.4,0c-0.6,0-1.2,0-1.8-0.1
					c-0.6,0-1.2-0.1-1.7-0.1c-0.5,0-0.9-0.1-1.1-0.1V1097.5z M1078.6,1099.7h-1c-0.3,0-0.7,0-1,0c-0.3,0-0.6,0-0.9,0.1
					c-0.3,0-0.5,0-0.7,0.1v18.8c0.1,0,0.3,0,0.6,0.1c0.3,0,0.6,0,1,0c0.3,0,0.7,0,1,0c0.3,0,0.5,0,0.6,0c1.6,0,2.9-0.3,4-0.8
					c1.1-0.5,1.9-1.3,2.6-2.2c0.6-0.9,1.1-2,1.4-3.1c0.3-1.2,0.4-2.4,0.4-3.7c0-1.1-0.1-2.2-0.4-3.3c-0.2-1.1-0.7-2.1-1.3-3
					c-0.6-0.9-1.4-1.6-2.4-2.2C1081.4,1100,1080.2,1099.7,1078.6,1099.7"/>
				<polygon class="st5" points="1099.6,1097.5 1112.5,1097.5 1112.5,1099.9 1102.4,1099.9 1102.4,1107.7 1111.6,1107.7 
					1111.6,1110.1 1102.4,1110.1 1102.4,1118.5 1112.6,1118.5 1112.6,1121 1099.6,1121 				"/>
				<path class="st5" d="M1133.7,1115c0-0.9-0.3-1.7-0.8-2.3c-0.6-0.6-1.3-1.1-2.1-1.6c-0.8-0.5-1.8-0.9-2.7-1.3
					c-1-0.4-1.9-0.9-2.7-1.5c-0.8-0.6-1.5-1.3-2.1-2.1c-0.6-0.8-0.8-1.9-0.8-3.2c0-1.8,0.6-3.3,1.9-4.4c1.3-1.1,3.1-1.6,5.5-1.6
					c1.4,0,2.6,0.1,3.7,0.3c1.1,0.2,2,0.5,2.6,0.8l-0.8,2.5c-0.5-0.3-1.3-0.5-2.3-0.7c-1-0.2-2.1-0.3-3.4-0.3c-1.5,0-2.6,0.3-3.3,1
					c-0.7,0.7-1.1,1.4-1.1,2.3c0,0.9,0.3,1.6,0.8,2.2s1.3,1.1,2.1,1.6c0.8,0.5,1.8,0.9,2.7,1.4c1,0.4,1.9,1,2.7,1.6
					c0.8,0.6,1.5,1.3,2.1,2.1c0.6,0.8,0.8,1.9,0.8,3.1c0,1-0.2,1.9-0.5,2.7c-0.4,0.8-0.9,1.5-1.6,2.1c-0.7,0.6-1.5,1-2.5,1.3
					c-1,0.3-2.1,0.5-3.4,0.5c-1.7,0-3.1-0.1-4.2-0.4c-1.1-0.3-2-0.5-2.6-0.9l0.9-2.5c0.5,0.3,1.3,0.6,2.3,0.8c1,0.3,2.1,0.4,3.4,0.4
					c0.7,0,1.4-0.1,2.1-0.2c0.7-0.1,1.2-0.4,1.7-0.7c0.5-0.3,0.8-0.7,1.1-1.2C1133.6,1116.3,1133.7,1115.7,1133.7,1115"/>
				<path class="st5" d="M1160.7,1097.5c0.4-0.1,0.9-0.1,1.4-0.2c0.5,0,1.1-0.1,1.6-0.1c0.6,0,1.1,0,1.7,0c0.5,0,1.1,0,1.5,0
					c1.9,0,3.5,0.3,4.9,0.9c1.4,0.6,2.5,1.4,3.4,2.4c0.9,1,1.6,2.3,2,3.8c0.4,1.5,0.7,3.1,0.7,4.8c0,1.6-0.2,3.1-0.6,4.6
					c-0.4,1.5-1.1,2.8-2,3.9c-0.9,1.1-2.1,2-3.5,2.7c-1.4,0.7-3.2,1-5.2,1c-0.4,0-0.8,0-1.4,0c-0.6,0-1.2,0-1.8-0.1
					s-1.2-0.1-1.7-0.1c-0.5,0-0.9-0.1-1.1-0.1V1097.5z M1167,1099.7h-1c-0.3,0-0.7,0-1,0c-0.3,0-0.6,0-0.9,0.1c-0.3,0-0.5,0-0.7,0.1
					v18.8c0.1,0,0.3,0,0.6,0.1c0.3,0,0.6,0,1,0c0.3,0,0.7,0,1,0c0.3,0,0.5,0,0.6,0c1.6,0,2.9-0.3,4-0.8c1.1-0.5,1.9-1.3,2.6-2.2
					c0.6-0.9,1.1-2,1.4-3.1c0.3-1.2,0.4-2.4,0.4-3.7c0-1.1-0.1-2.2-0.4-3.3c-0.2-1.1-0.7-2.1-1.3-3c-0.6-0.9-1.4-1.6-2.4-2.2
					C1169.9,1100,1168.6,1099.7,1167,1099.7"/>
				<path class="st5" d="M1188.1,1097.5h12.8v2.5h-10v7.7h9.2v2.5h-9.2v8.4h10.2v2.5h-13V1097.5z M1196.3,1091.7h3.8v0.7l-5.5,3.3
					h-2.3L1196.3,1091.7z"/>
				<polygon class="st5" points="1211.5,1097.5 1224.3,1097.5 1224.3,1099.9 1214.3,1099.9 1214.3,1108 1223.6,1108 1223.6,1110.5 
					1214.3,1110.5 1214.3,1121 1211.5,1121 				"/>
				<rect x="1234.9" y="1097.5" class="st5" width="2.8" height="23.6"/>
				<path class="st5" d="M1260.1,1115c0-0.9-0.3-1.7-0.8-2.3c-0.6-0.6-1.3-1.1-2.1-1.6c-0.8-0.5-1.8-0.9-2.7-1.3
					c-1-0.4-1.9-0.9-2.7-1.5c-0.8-0.6-1.5-1.3-2.1-2.1c-0.6-0.8-0.8-1.9-0.8-3.2c0-1.8,0.6-3.3,1.9-4.4c1.3-1.1,3.1-1.6,5.5-1.6
					c1.4,0,2.6,0.1,3.7,0.3c1.1,0.2,2,0.5,2.6,0.8l-0.8,2.5c-0.5-0.3-1.3-0.5-2.3-0.7c-1-0.2-2.1-0.3-3.4-0.3c-1.5,0-2.6,0.3-3.3,1
					c-0.7,0.7-1.1,1.4-1.1,2.3c0,0.9,0.3,1.6,0.8,2.2c0.6,0.6,1.3,1.1,2.1,1.6c0.8,0.5,1.8,0.9,2.7,1.4c1,0.4,1.9,1,2.7,1.6
					c0.8,0.6,1.5,1.3,2.1,2.1c0.6,0.8,0.8,1.9,0.8,3.1c0,1-0.2,1.9-0.5,2.7c-0.4,0.8-0.9,1.5-1.6,2.1c-0.7,0.6-1.5,1-2.5,1.3
					c-1,0.3-2.1,0.5-3.4,0.5c-1.7,0-3.1-0.1-4.2-0.4c-1.1-0.3-2-0.5-2.6-0.9l0.9-2.5c0.5,0.3,1.3,0.6,2.3,0.8c1,0.3,2.1,0.4,3.4,0.4
					c0.7,0,1.4-0.1,2.1-0.2c0.7-0.1,1.2-0.4,1.7-0.7c0.5-0.3,0.8-0.7,1.1-1.2C1259.9,1116.3,1260.1,1115.7,1260.1,1115"/>
				<path class="st5" d="M1287.1,1097.7c0.9-0.2,1.8-0.3,2.8-0.4c1-0.1,2-0.1,2.9-0.1c1,0,2.1,0.1,3.1,0.3c1.1,0.2,2,0.6,2.9,1.1
					c0.9,0.5,1.6,1.3,2.1,2.2c0.5,0.9,0.8,2.1,0.8,3.6c0,1.4-0.3,2.6-0.8,3.6c-0.5,1-1.2,1.8-2.1,2.4c-0.9,0.6-1.8,1.1-2.9,1.3
					c-1.1,0.3-2.2,0.4-3.4,0.4h-0.6c-0.3,0-0.5,0-0.8,0c-0.3,0-0.6,0-0.8-0.1c-0.3,0-0.5,0-0.6-0.1v9h-2.8V1097.7z M1292.8,1099.6
					c-0.6,0-1.1,0-1.7,0c-0.5,0-1,0.1-1.3,0.2v9.8c0.1,0,0.3,0.1,0.5,0.1c0.2,0,0.5,0,0.8,0c0.3,0,0.5,0,0.8,0h0.5
					c0.8,0,1.5-0.1,2.3-0.2c0.8-0.1,1.4-0.4,2-0.8c0.6-0.4,1.1-0.9,1.5-1.6c0.4-0.7,0.6-1.6,0.6-2.7c0-0.9-0.2-1.7-0.5-2.3
					c-0.3-0.6-0.8-1.1-1.4-1.5c-0.6-0.4-1.2-0.6-1.9-0.8C1294.3,1099.7,1293.5,1099.6,1292.8,1099.6"/>
				<path class="st5" d="M1309.7,1109.2c0-3.9,0.8-6.9,2.5-9s4-3.1,7.1-3.1c1.7,0,3.1,0.3,4.3,0.9c1.2,0.6,2.2,1.4,3,2.5
					c0.8,1.1,1.4,2.3,1.8,3.8c0.4,1.5,0.6,3.2,0.6,5c0,3.9-0.8,6.9-2.5,9c-1.7,2.1-4.1,3.1-7.2,3.1c-1.6,0-3.1-0.3-4.3-0.9
					c-1.2-0.6-2.2-1.4-3-2.5c-0.8-1.1-1.4-2.3-1.8-3.8C1309.9,1112.7,1309.7,1111.1,1309.7,1109.2 M1312.7,1109.2
					c0,1.3,0.1,2.5,0.4,3.7c0.3,1.2,0.7,2.2,1.2,3.1c0.5,0.9,1.2,1.6,2.1,2.1c0.8,0.5,1.8,0.8,3,0.8c2.1,0,3.7-0.8,4.9-2.4
					c1.2-1.6,1.8-4,1.8-7.3c0-1.3-0.1-2.5-0.4-3.7c-0.3-1.2-0.7-2.2-1.2-3.1c-0.6-0.9-1.2-1.6-2.1-2.1c-0.8-0.5-1.8-0.8-3-0.8
					c-2.1,0-3.7,0.8-4.9,2.4C1313.3,1103.5,1312.7,1105.9,1312.7,1109.2"/>
				<path class="st5" d="M1352.6,1097.5h2.7v15.7c0,1.4-0.2,2.6-0.6,3.7c-0.4,1-0.9,1.9-1.6,2.5c-0.7,0.7-1.5,1.1-2.5,1.5
					c-1,0.3-2,0.5-3.2,0.5c-2.8,0-4.9-0.6-6.3-1.9c-1.4-1.3-2.1-3.2-2.1-5.7v-16.3h2.8v14.9c0,1.2,0.1,2.2,0.4,3
					c0.2,0.8,0.6,1.5,1.1,2c0.5,0.5,1.1,0.9,1.8,1.1c0.7,0.2,1.5,0.3,2.5,0.3c1.8,0,3.1-0.5,3.9-1.5c0.8-1,1.2-2.6,1.2-4.9V1097.5z"
					/>
				<path class="st5" d="M1366.4,1097.7c0.9-0.2,1.8-0.3,2.9-0.4c1.1-0.1,2.1-0.1,3-0.1c1,0,2,0.1,2.9,0.3c0.9,0.2,1.8,0.6,2.5,1.1
					c0.7,0.5,1.3,1.2,1.7,2c0.4,0.8,0.6,1.8,0.6,3c0,1.8-0.5,3.3-1.5,4.5c-1,1.1-2.3,1.9-3.8,2.3l1.6,1.2l5.9,9.3h-3.3l-6.5-10.2
					l-3.3-0.5v10.7h-2.8V1097.7z M1372.5,1099.6h-0.9c-0.3,0-0.6,0-0.9,0c-0.3,0-0.6,0-0.8,0.1c-0.3,0-0.5,0.1-0.6,0.1v8.7h2.6
					c1.5,0,2.8-0.4,3.8-1.1c1-0.8,1.5-2,1.5-3.6c0-1.2-0.4-2.2-1.2-3C1375.1,1100,1374,1099.6,1372.5,1099.6"/>
				<polygon class="st5" points="1420.1,1121 1406.2,1121 1406.2,1097.5 1409,1097.5 1409,1118.5 1420.1,1118.5 				"/>
				<path class="st5" d="M1440.4,1114.5h-8.6l-2.3,6.5h-2.8l8.9-23.9h1.3l9,23.9h-3L1440.4,1114.5z M1432.6,1112.1h6.9l-2.6-7.2
					l-0.8-3.6h0l-0.8,3.6L1432.6,1112.1z"/>
				<path class="st5" d="M1475.2,1109.3h7.9v10.4c-0.4,0.3-0.8,0.5-1.3,0.7c-0.5,0.2-1,0.4-1.6,0.6c-0.6,0.2-1.2,0.3-1.8,0.4
					c-0.6,0.1-1.2,0.1-1.8,0.1c-1.5,0-2.9-0.2-4.1-0.7c-1.3-0.5-2.3-1.2-3.3-2.2c-0.9-1-1.6-2.3-2.2-3.8c-0.5-1.5-0.8-3.3-0.8-5.4
					c0-2.2,0.3-4,0.9-5.6c0.6-1.5,1.4-2.8,2.5-3.8c1-1,2.1-1.7,3.4-2.1c1.3-0.4,2.5-0.7,3.8-0.7c1.3,0,2.5,0.1,3.3,0.2
					c0.9,0.1,1.6,0.3,2.2,0.6l-0.7,2.5c-1.1-0.5-2.6-0.8-4.6-0.8c-0.9,0-1.9,0.2-2.8,0.5c-0.9,0.3-1.8,0.9-2.5,1.6
					c-0.7,0.8-1.3,1.8-1.8,3c-0.5,1.2-0.7,2.8-0.7,4.6c0,1.7,0.2,3.1,0.6,4.3c0.4,1.2,0.9,2.2,1.6,3c0.7,0.8,1.5,1.4,2.5,1.8
					c1,0.4,2,0.6,3.2,0.6c1.4,0,2.7-0.3,3.7-0.8v-6.6l-5.5-0.7V1109.3z"/>
				<polygon class="st5" points="1507.2,1121 1493.2,1121 1493.2,1097.5 1496,1097.5 1496,1118.5 1507.2,1118.5 				"/>
				<path class="st5" d="M1512.8,1109.2c0-3.9,0.8-6.9,2.5-9c1.7-2.1,4-3.1,7.1-3.1c1.7,0,3.1,0.3,4.3,0.9c1.2,0.6,2.2,1.4,3,2.5
					c0.8,1.1,1.4,2.3,1.8,3.8c0.4,1.5,0.6,3.2,0.6,5c0,3.9-0.8,6.9-2.5,9c-1.7,2.1-4.1,3.1-7.2,3.1c-1.6,0-3.1-0.3-4.3-0.9
					c-1.2-0.6-2.2-1.4-3-2.5c-0.8-1.1-1.4-2.3-1.8-3.8C1513,1112.7,1512.8,1111.1,1512.8,1109.2 M1515.8,1109.2
					c0,1.3,0.1,2.5,0.4,3.7c0.3,1.2,0.7,2.2,1.2,3.1c0.5,0.9,1.2,1.6,2.1,2.1c0.8,0.5,1.8,0.8,3,0.8c2.1,0,3.7-0.8,4.9-2.4
					c1.2-1.6,1.8-4,1.8-7.3c0-1.3-0.1-2.5-0.4-3.7c-0.3-1.2-0.7-2.2-1.2-3.1c-0.5-0.9-1.2-1.6-2.1-2.1c-0.8-0.5-1.8-0.8-3-0.8
					c-2.1,0-3.7,0.8-4.9,2.4C1516.4,1103.5,1515.8,1105.9,1515.8,1109.2"/>
				<rect x="1542.8" y="1097.5" class="st5" width="2.8" height="23.6"/>
				<path class="st5" d="M1557.4,1097.7c0.9-0.2,1.8-0.3,2.9-0.4c1.1-0.1,2.1-0.1,3-0.1c1,0,2,0.1,2.9,0.3c0.9,0.2,1.7,0.6,2.5,1.1
					c0.7,0.5,1.3,1.2,1.7,2c0.4,0.8,0.6,1.8,0.6,3c0,1.8-0.5,3.3-1.5,4.5c-1,1.1-2.3,1.9-3.8,2.3l1.6,1.2l5.9,9.3h-3.3l-6.5-10.2
					l-3.3-0.5v10.7h-2.8V1097.7z M1563.4,1099.6h-0.9c-0.3,0-0.6,0-0.9,0c-0.3,0-0.6,0-0.8,0.1c-0.3,0-0.5,0.1-0.6,0.1v8.7h2.6
					c1.5,0,2.8-0.4,3.8-1.1c1-0.8,1.5-2,1.5-3.6c0-1.2-0.4-2.2-1.2-3C1566.1,1100,1564.9,1099.6,1563.4,1099.6"/>
				<polygon class="st5" points="1582.8,1097.5 1595.6,1097.5 1595.6,1099.9 1585.6,1099.9 1585.6,1107.7 1594.7,1107.7 
					1594.7,1110.1 1585.6,1110.1 1585.6,1118.5 1595.8,1118.5 1595.8,1121 1582.8,1121 				"/>
				<path class="st5" d="M1620.6,1097.5c0.4-0.1,0.9-0.1,1.4-0.2c0.5,0,1.1-0.1,1.7-0.1c0.6,0,1.1,0,1.7,0c0.5,0,1.1,0,1.5,0
					c1.9,0,3.5,0.3,4.9,0.9c1.4,0.6,2.5,1.4,3.4,2.4c0.9,1,1.6,2.3,2,3.8c0.4,1.5,0.7,3.1,0.7,4.8c0,1.6-0.2,3.1-0.6,4.6
					c-0.4,1.5-1.1,2.8-2,3.9c-0.9,1.1-2.1,2-3.5,2.7c-1.4,0.7-3.2,1-5.2,1c-0.4,0-0.8,0-1.4,0c-0.6,0-1.2,0-1.8-0.1
					c-0.6,0-1.2-0.1-1.7-0.1c-0.5,0-0.9-0.1-1.1-0.1V1097.5z M1626.9,1099.7h-1c-0.3,0-0.7,0-1,0c-0.3,0-0.6,0-0.9,0.1
					c-0.3,0-0.5,0-0.7,0.1v18.8c0.1,0,0.3,0,0.6,0.1c0.3,0,0.6,0,1,0c0.3,0,0.7,0,1,0c0.3,0,0.5,0,0.6,0c1.6,0,2.9-0.3,4-0.8
					c1.1-0.5,1.9-1.3,2.6-2.2c0.6-0.9,1.1-2,1.4-3.1c0.3-1.2,0.4-2.4,0.4-3.7c0-1.1-0.1-2.2-0.4-3.3c-0.2-1.1-0.7-2.1-1.3-3
					c-0.6-0.9-1.4-1.6-2.4-2.2C1629.7,1100,1628.5,1099.7,1626.9,1099.7"/>
				<polygon class="st5" points="1647.9,1097.5 1660.8,1097.5 1660.8,1099.9 1650.7,1099.9 1650.7,1107.7 1659.9,1107.7 
					1659.9,1110.1 1650.7,1110.1 1650.7,1118.5 1660.9,1118.5 1660.9,1121 1647.9,1121 				"/>
				<path class="st5" d="M1700.8,1120c-0.7,0.5-1.5,0.9-2.6,1.1c-1,0.2-2.1,0.3-3.3,0.3c-1.4,0-2.7-0.2-4-0.7
					c-1.2-0.5-2.3-1.2-3.2-2.2c-0.9-1-1.6-2.2-2.2-3.8c-0.5-1.5-0.8-3.4-0.8-5.5c0-2.2,0.3-4.1,0.9-5.6c0.6-1.5,1.4-2.8,2.4-3.8
					c1-1,2.1-1.7,3.3-2.1c1.2-0.4,2.4-0.7,3.7-0.7c1.3,0,2.4,0.1,3.3,0.2c0.9,0.1,1.6,0.3,2.2,0.6l-0.7,2.5
					c-1.1-0.5-2.6-0.8-4.6-0.8c-0.9,0-1.8,0.2-2.7,0.5c-0.9,0.3-1.7,0.9-2.4,1.6c-0.7,0.8-1.3,1.8-1.7,3c-0.4,1.2-0.6,2.7-0.6,4.5
					c0,1.6,0.2,3,0.6,4.2s1,2.2,1.7,3c0.7,0.8,1.5,1.4,2.5,1.8c1,0.4,2,0.6,3.1,0.6c1,0,1.9-0.1,2.6-0.3c0.8-0.2,1.4-0.5,1.9-0.8
					L1700.8,1120z"/>
				<polygon class="st5" points="1724.4,1110.2 1713.1,1110.2 1713.1,1121 1710.3,1121 1710.3,1097.5 1713.1,1097.5 1713.1,1107.7 
					1724.4,1107.7 1724.4,1097.5 1727.2,1097.5 1727.2,1121 1724.4,1121 				"/>
				<path class="st5" d="M1738.3,1097.7c0.9-0.2,1.8-0.3,2.9-0.4c1.1-0.1,2.1-0.1,3-0.1c1,0,2,0.1,2.9,0.3c0.9,0.2,1.7,0.6,2.5,1.1
					c0.7,0.5,1.3,1.2,1.7,2c0.4,0.8,0.6,1.8,0.6,3c0,1.8-0.5,3.3-1.5,4.5c-1,1.1-2.3,1.9-3.8,2.3l1.6,1.2l5.9,9.3h-3.3l-6.5-10.2
					l-3.3-0.5v10.7h-2.8V1097.7z M1744.4,1099.6h-0.9c-0.3,0-0.6,0-0.9,0c-0.3,0-0.6,0-0.8,0.1c-0.3,0-0.5,0.1-0.6,0.1v8.7h2.6
					c1.5,0,2.8-0.4,3.8-1.1c1-0.8,1.5-2,1.5-3.6c0-1.2-0.4-2.2-1.2-3C1747,1100,1745.9,1099.6,1744.4,1099.6"/>
				<rect x="1764.4" y="1097.5" class="st5" width="2.8" height="23.6"/>
				<path class="st5" d="M1789.5,1115c0-0.9-0.3-1.7-0.8-2.3c-0.6-0.6-1.3-1.1-2.1-1.6c-0.8-0.5-1.8-0.9-2.7-1.3
					c-1-0.4-1.9-0.9-2.7-1.5c-0.8-0.6-1.5-1.3-2.1-2.1c-0.6-0.8-0.8-1.9-0.8-3.2c0-1.8,0.6-3.3,1.9-4.4c1.3-1.1,3.1-1.6,5.5-1.6
					c1.4,0,2.6,0.1,3.7,0.3c1.1,0.2,2,0.5,2.6,0.8l-0.8,2.5c-0.5-0.3-1.3-0.5-2.3-0.7c-1-0.2-2.1-0.3-3.4-0.3c-1.5,0-2.6,0.3-3.3,1
					c-0.7,0.7-1.1,1.4-1.1,2.3c0,0.9,0.3,1.6,0.8,2.2c0.6,0.6,1.3,1.1,2.1,1.6c0.8,0.5,1.8,0.9,2.7,1.4c1,0.4,1.9,1,2.7,1.6
					c0.8,0.6,1.5,1.3,2.1,2.1c0.6,0.8,0.8,1.9,0.8,3.1c0,1-0.2,1.9-0.5,2.7c-0.4,0.8-0.9,1.5-1.6,2.1s-1.5,1-2.5,1.3
					c-1,0.3-2.1,0.5-3.4,0.5c-1.7,0-3.1-0.1-4.2-0.4c-1.1-0.3-2-0.5-2.6-0.9l0.9-2.5c0.5,0.3,1.3,0.6,2.3,0.8c1,0.3,2.1,0.4,3.4,0.4
					c0.7,0,1.4-0.1,2.1-0.2c0.7-0.1,1.2-0.4,1.7-0.7c0.5-0.3,0.8-0.7,1.1-1.2C1789.4,1116.3,1789.5,1115.7,1789.5,1115"/>
				<polygon class="st5" points="1817.4,1099.9 1810,1099.9 1810,1121 1807.2,1121 1807.2,1099.9 1799.9,1099.9 1799.9,1097.5 
					1817.4,1097.5 				"/>
				<path class="st5" d="M1432.7,985.5c-0.4-2.3-0.6-4.6-0.5-7.1c0.1-2.5,0.3-4.9,0.5-7.4c0.4-6.8,0.6-13.6,0.5-20.5
					c-0.1-6.9,0.1-13.7,0.5-20.5c0.4-5.5,0.6-11.1,0.6-16.6v-16.6c0.2-5.3,0.3-10.7,0.3-16.2c0-5.4,0.2-10.8,0.6-16.2l0.6-18.8
					c0.2-4.1,0.5-8.3,0.9-12.5c0.4-4.2,0.6-8.4,0.6-12.5v-10.6c0-3.6,0.1-7.1,0.3-10.6c0-1-0.4-2.4-1.2-4c-1-1.6-0.5-2.8,1.5-3.4
					c0.8-0.4,1.6-0.8,2.3-1.2c0.7-0.4,1.5-0.8,2.3-1.2c2.5-1.4,5.2-2.1,8.3-1.8c2.3,0,4.5-0.1,6.8-0.3c2.3-0.2,4.5-0.2,6.8,0
					c4.1,0.4,8.2,0.9,12.2,1.5c4,0.6,7.9,1.7,11.6,3.4c2.9,1.2,5.8,2.5,8.8,3.7c3,1.2,5.8,2.8,8.5,4.6c3.7,2.9,7.2,5.9,10.5,8.9
					c3.3,3.1,5.8,6.8,7.4,11.1c1.8,5.1,2.7,10.3,2.5,15.4v6.2c0,2.5-0.4,4.8-1.1,7.1c-0.7,2.3-1.6,4.5-2.6,6.8
					c-1.2,2.9-2.5,5.7-3.7,8.3c-1.2,2.7-2.7,5.3-4.3,8c-2.5,4.3-6.2,8.2-11.1,11.7c-0.8,0.4-1.6,0.9-2.3,1.4
					c-0.7,0.5-1.5,1.1-2.3,1.7c-2.7,2.5-6.2,4.5-10.5,6.2l-2.2,0.9c-1.6,1-2,2.3-0.9,3.7c3.1,4.3,5.5,8.9,7.2,13.9
					c1.7,4.9,3.7,9.8,6,14.5c1,2.3,2.1,4.4,3.2,6.5c1.1,2.1,2.5,4.1,4.2,6.2c1.6,2.1,3,4.2,4.2,6.3c1.1,2.2,2.3,4.4,3.5,6.6
					c2.5,4.7,4.7,9.6,6.6,14.6c2,5,4.1,10,6.3,15l1.5,2.8c2.5,4.1,4.7,8.4,6.8,12.8c2.1,4.4,4.2,8.8,6.5,13.1c0.4,1,0.6,2.1,0.5,3.2
					c-0.1,1.1,0.4,2.1,1.4,2.9c-0.4,0.8-0.8,1.6-1.1,2.5c-0.3,0.8-0.7,1.6-1.1,2.5c-0.4,0.4-0.9,0.5-1.4,0.3c-0.5-0.2-1-0.3-1.4-0.3
					c-2.9,0.2-5.3-0.5-7.2-2.2c-2-1.6-3.8-3.5-5.4-5.5c-2.5-3.3-4.6-6.7-6.3-10.3c-1.7-3.6-3.4-7.1-5.1-10.6
					c-1.6-3.5-3.3-6.8-4.9-9.9c-1.6-3.1-3.4-6.2-5.2-9.3c-1.8-3.5-3.6-7-5.2-10.5c-1.6-3.5-3.3-7-4.9-10.5
					c-3.5-7.4-7.2-14.8-11.1-22.2c-1.4-2.3-2.7-4.5-3.7-6.8c-1-2.3-2.1-4.5-3.1-6.8c-1-2.3-2.4-4.1-4-5.5c-1.6-1.4-3.1-3-4.3-4.6
					c-0.2-0.4-0.5-0.6-0.8-0.5c-0.3,0.1-0.6,0.4-0.8,0.8c-0.4,0.8-0.4,1.5,0,2.2c0.2,6.2,0.2,12.4-0.2,18.7
					c-0.3,6.3-0.5,12.6-0.5,19c0,3.3,0.1,6.5,0.3,9.7c0.2,3.2,0.2,6.4,0,9.7c-0.4,5.5-0.7,11.1-0.8,16.6c-0.1,5.5-0.4,11.1-0.8,16.6
					c-0.2,2.9-0.5,5.8-0.8,8.6c-0.3,2.9-0.9,5.8-1.7,8.6c-0.2,0.8-0.4,1.6-0.6,2.3c-0.2,0.7-0.7,1.3-1.5,1.7
					c-0.8,0.8-1.4,1.7-1.8,2.6c-0.4,0.9-1.1,1.7-2.2,2.3c-2.1,1.4-4.4,2.2-7.1,2.2c-2.7,0-5.1-0.7-7.4-2.2l-1.5-1.2
					c-4.3-1.8-6.3-5.1-5.9-9.9c0.2-2.3,0.2-4.6-0.2-7.1c-0.3-2.5-0.5-4.8-0.5-7.1V985.5z M1465,872.7c-0.4,1.8-0.5,3.4-0.2,4.8
					c0.3,1.3,0.6,2.7,0.8,4.2c0,1.9,0.8,2.4,2.5,1.5c4.7-2.3,9.3-4.7,13.7-7.2c4.4-2.6,8.7-5.6,12.8-9.1c2.5-2.3,4.7-5,6.8-8.3
					c3.5-6,6.3-12.5,8.3-19.7c1.2-4.9,0.8-9.7-1.2-14.2c-3.1-6.2-7.4-11.4-12.9-15.7c-3.7-2.5-7.9-4.4-12.6-5.9
					c-1.8-0.4-3.8-0.7-5.7-0.8c-2-0.1-3.9-0.4-5.7-0.8c-0.8-0.4-1.4-0.4-1.8,0.2c-0.4,0.5-0.5,1.2-0.3,2c0,2.3-0.1,4.4-0.2,6.5
					c-0.1,2.1-0.3,4.2-0.5,6.5c-0.4,3.3-0.7,6.5-0.8,9.7c-0.1,3.2-0.4,6.3-0.8,9.4c-0.4,2.3-0.8,4.4-1.2,6.5
					c-0.4,2.1-0.5,4.1-0.3,6.2c0,4.1-0.2,8.2-0.6,12.3C1464.6,864.8,1464.6,868.8,1465,872.7"/>
				<path class="st5" d="M1597,879.2c3.3-0.4,6.5-0.9,9.6-1.4c3.1-0.5,6.3-1,9.6-1.4c2.9-0.4,5.8-0.7,8.8-0.8c3-0.1,5.9-0.3,8.8-0.5
					c1.8-0.2,3.3,0.6,4.5,2.5c1.1,1.8,1.4,3.7,0.8,5.5c0,0.4-0.4,0.8-1.2,1.2c-1,0.4-1.9,0.8-2.6,1.1c-0.7,0.3-1.6,0.6-2.6,0.8
					c-2.9,1-5.7,2.2-8.5,3.4c-2.8,1.2-5.6,2.4-8.5,3.4l-4.3,0.9c-1.8,0-3.7,0.1-5.5,0.2c-1.8,0.1-3.7,0.3-5.5,0.5h-1.5
					c-2.3,0.2-3.4,1.4-3.4,3.7l-0.9,14.5c0,1.6-0.1,3.2-0.3,4.8c-0.2,1.5-0.3,3.1-0.3,4.8c0,5.3-0.3,10.3-0.9,14.8
					c-0.2,3.1-0.3,6.2-0.2,9.2c0.1,3.1,0.3,6.2,0.5,9.3c0,2.1-0.1,4-0.2,5.9c-0.1,1.9-0.3,3.8-0.5,5.9c0,2.9,0.1,5.7,0.3,8.5
					c0.2,2.8,0.3,5.6,0.3,8.5c0,2.5-0.1,4.9-0.3,7.2c-0.2,2.4-0.6,4.7-1.2,6.9c-0.4,1-0.6,1.9-0.6,2.6v2.3c-0.2,1.8,0.5,2.6,2.2,2.2
					l8.6-1.9c4.1-1,8.1-2.1,12-3.1c3.9-1,7.9-2,12-2.8c1.6-0.4,3.2-0.6,4.8-0.6c1.5,0,3.1-0.1,4.8-0.3c1.8-0.2,3.7-0.3,5.5-0.3
					c1.9,0,3.7-0.2,5.6-0.6c2.3-0.4,4.1,0.3,5.5,2c1.4,1.7,1.9,3.7,1.2,6c-0.4,1.2-1.2,2.1-2.3,2.6c-1.1,0.5-2.2,0.8-3.2,0.8
					c-2.5,0.2-4.9,0.5-7.4,0.8c-2.5,0.3-4.9,0.8-7.4,1.4c-3.3,0.6-6.5,1.3-9.7,2.2c-3.2,0.8-6.4,1.7-9.7,2.8
					c-4.1,1.2-8.2,2.5-12.2,3.7c-4,1.2-8.1,2.4-12.2,3.4c-1.6,0.4-3.1,1-4.3,1.8c-1.2,0.8-2.7,1.5-4.3,2.2
					c-3.9,1.4-7.3,2.2-10.2,2.2c-0.8,0-1.5-0.1-2-0.3c-0.5-0.2-1.1-0.5-1.7-0.9c-2.7-2.1-4.5-4.4-5.5-6.9c-1-2.6-1.6-5.5-1.9-8.8
					c-0.2-2.9-0.3-5.7-0.2-8.3c0.1-2.7,0.2-5.4,0.2-8.3c0-5.3-0.2-10.6-0.5-15.7c-0.3-5.1-0.6-10.4-0.8-15.7
					c-0.2-5.3-0.5-10.7-0.9-16.2c-0.4-5.4-0.4-10.8,0-16.2c0.4-7.2,0.6-14.5,0.5-21.9c-0.1-7.4,0-14.7,0.5-21.9l1.5-29
					c0.4-3.7,0.7-7.4,0.9-11.1c0.2-3.7,0.4-7.4,0.6-11.1l2.2-22.2c0.4-2.3,0.5-4.4,0.3-6.3c-0.2-2-0.1-4,0.3-6
					c0.2-0.6,0.2-1.2,0-1.8c-0.2-0.6-0.3-1.2-0.3-1.8c-0.6-2.7,0.3-4.2,2.8-4.6c2.7-0.2,5.3-0.4,7.9-0.5c2.6-0.1,5.1,0.6,7.6,2
					c1,0.6,2.1,1,3.2,1.1c1.1,0.1,2.3,0.4,3.5,0.8c2.9,0.4,5.8,0.7,8.8,0.9c3,0.2,5.9,0.4,8.8,0.6c3.1,0.2,6.2,0.4,9.2,0.6
					c3.1,0.2,6.3,0.2,9.6,0h12.9c2.7,0.2,5.2,1.2,7.7,3.1c1.4,0.8,2,2.3,1.5,4.3c0,0.8-0.4,1.2-1.2,1.2c-2.7,0.6-5.3,1.2-7.9,1.7
					c-2.6,0.5-5.3,1-8.2,1.4c-4.7,0.4-9.3,0.5-13.7,0.3c-4.4-0.2-9-0.2-13.7,0c-2.5,0-3.7,1.2-3.7,3.7c0.2,1.8,0.3,3.7,0.2,5.5
					c-0.1,1.8-0.2,3.7-0.2,5.5c0.4,2.7,0.3,5.1-0.3,7.4c-0.2,0.6-0.3,1.6-0.3,3.1c0.4,5.1,0.5,10.2,0.2,15.3c-0.3,5-0.6,10-0.8,15
					c-0.2,1.8-0.5,3.7-0.8,5.5c-0.3,1.8-0.4,3.7-0.2,5.5C1596.4,877.7,1596.6,878.5,1597,879.2 M1624.1,755.8
					c2.3-0.4,3.6-0.1,4.2,0.9c0.5,1,0.5,2.6-0.2,4.6c-0.6,2.7-1.8,5-3.7,7.1c-2.1,2.3-4,4.7-5.9,7.2c-1.8,2.6-3.8,5.1-5.9,7.6
					c-1,1-2.1,2.1-3.2,3.1c-1.1,1-2.2,2.1-3.2,3.1c-0.4,0.4-1,0.8-1.8,1.2c-0.8,0.4-1.5,0.8-2.2,1.2c-1.6,1-3.1,0.8-4.3-0.6
					c-1-1-1.5-2.2-1.5-3.4c0-1.2,0.4-2.4,1.2-3.4c2.9-3.7,5.6-7.5,8-11.4c2.5-3.9,5.1-7.7,8-11.4c1-1.2,2.1-2.3,3.2-3.1
					c1.1-0.8,2.3-1.6,3.5-2.5c0.6-0.4,1.2-0.6,1.8-0.5C1622.9,755.8,1623.5,755.8,1624.1,755.8"/>
				<path class="st5" d="M1734.2,876.7c0,0.4,0.4,0.8,1.2,1.2c4.1,1,8,2.7,11.6,4.9c3.6,2.3,7.3,4.3,11.3,6.2
					c2.9,1.6,5.6,3.5,8.2,5.6c2.6,2.1,5.2,4.2,7.9,6.5l2.8,3.1c2.9,4.5,5.5,9,8,13.6c2.5,4.5,4.5,9.4,6.2,14.5
					c2.7,7.4,3.1,14.7,1.2,21.9c-0.4,1.4-0.9,2.7-1.5,3.9c-0.6,1.1-1,2.4-1.2,3.9c0,0.4-0.1,0.7-0.2,0.9c-0.1,0.2-0.2,0.4-0.2,0.6
					c0.4,3.7-0.3,6.9-2.2,9.7c-1.8,2.8-3.9,5.4-6.2,7.9c-1,1.2-2,2.5-2.8,3.7c-0.8,1.2-1.6,2.5-2.5,3.7c-1.6,3.1-3.5,5.9-5.5,8.5
					c-2.1,2.6-4.1,5.2-6.2,7.9c-1.4,1.4-2.8,3.1-4,4.9c-0.8,1.4-1.7,2.7-2.8,3.9c-1,1.1-2.4,2-4,2.6c-3.3,1-6.4,2.4-9.4,4
					c-3,1.6-5.9,3.3-8.8,4.9c-2.5,1.4-4.7,2.3-6.8,2.5c-1.2,0.4-2.5,0.8-3.9,1.1c-1.3,0.3-2.6,0.7-3.9,1.1c-2.3,1-4.6,1.3-7.1,0.9
					c-3.5-0.4-7.7-0.9-12.5-1.5c-4.8-0.6-8.9-1.8-12.2-3.7c-3.9-2.1-7.2-4.7-9.9-8c-1-1.6-1.7-3.6-2.2-5.9
					c-0.2-4.7-0.5-9.3-0.8-13.7c-0.3-4.4-0.6-9-0.8-13.7c-0.4-4.7-0.6-9.4-0.6-14c0-4.6-0.1-9.3-0.3-14l-0.6-21.9
					c-0.2-2.9-0.5-5.6-0.8-8.2c-0.3-2.6-0.3-5.3,0.2-8.2l0.6-14.5c0.2-3.1,0.3-6.2,0.2-9.4c-0.1-3.2-0.4-6.3-0.8-9.4
					c-0.2-1.4-0.2-2.8,0-4.2c0.2-1.3,0.4-2.6,0.6-3.9c0.4-3.1,0.4-6.1,0-8.9c0-10.5,0.3-20.9,0.8-31.3c0.5-10.4,0.6-20.8,0.2-31.3
					c0-1.6,0.2-3.3,0.5-4.9c0.3-1.6,0.4-3.3,0.2-4.9c0-1.4,0.7-2.5,2.2-3.1c1.6-0.6,3.1-1.4,4.5-2.3c1.3-0.9,2.8-1.6,4.5-2
					c1.6-0.6,3.1-0.6,4.3,0c1,0.6,2.6,0.9,4.8,0.9s3.7-0.1,4.8-0.3c2.7-0.4,5.2-0.3,7.6,0.3c2.4,0.6,4.8,1.1,7.2,1.5
					c4.7,0.6,9.4,1.7,14,3.2c4.6,1.5,9.1,3.3,13.4,5.4c3.1,1.4,6.1,3,8.9,4.6c2.9,1.6,5.6,3.6,8,5.9c0.6,0.6,1.2,1.2,1.8,1.8
					c0.6,0.6,1.3,1.1,2.2,1.5c2.3,1.4,4.1,3.6,5.6,6.5c1.4,3.3,2.8,6.6,4,9.9c1.2,3.3,1.3,6.8,0.3,10.5c-0.6,2.7-1.8,4.9-3.7,6.8
					c-3.9,4.3-7.9,8.5-12,12.6c-4.1,4.1-8.5,7.9-13.3,11.4c-1.2,1-2.6,2-4,2.8c-1.4,0.8-2.9,1.6-4.3,2.5
					C1735,875.9,1734.4,876.3,1734.2,876.7 M1705.5,1005c0.4,1.9,0.7,3.6,0.9,5.4c0.2,1.7,0.4,3.4,0.6,5.1c0.2,1.8,1.2,2.8,3.1,2.8
					h2c0.7,0,1.4-0.1,2-0.3c2.7-0.4,5.1-1.1,7.4-2.2c2.3-1,4.5-2.2,6.8-3.4c2.9-1.4,5.6-3,8.2-4.8c2.6-1.7,5.1-3.7,7.6-5.7
					c4.9-4.1,9.5-8.4,13.7-12.9c4.2-4.5,7.9-9.6,10.9-15.1c1.4-2.3,2.5-4.6,3.2-7.1c0.7-2.5,1.5-4.9,2.3-7.4c1-3.5,1.9-7,2.5-10.5
					c0.6-3.5,0.1-7-1.5-10.5c-0.4-0.8-0.7-1.7-0.8-2.8c-0.1-1,0-2.1,0.5-3.1c0.4-0.6,0.4-1.3,0-2.2c-1-2.3-1.8-4.6-2.3-7.1
					c-0.5-2.5-1.6-4.6-3.2-6.5l-3.1-4.3c-2.5-3.3-5.3-6.2-8.6-8.6l-12.9-7.7c-2.3-1.2-4.4-2.5-6.3-3.9c-2-1.3-4.3-2.1-6.9-2.3
					c-0.6,0-1.3-0.2-2.2-0.6c-0.8-0.4-2.1-0.6-3.7-0.6l-13.3-1.9c-1.6-0.4-2.7-0.4-3.2,0.2c-0.5,0.5-0.8,1.6-0.8,3.2
					c-0.2,4.1-0.2,8.3,0.2,12.5c0.3,4.2,0.3,8.4-0.2,12.5c-0.4,4.7-0.5,9.4-0.3,13.9c0.2,4.5,0.2,9.1,0,13.9c0,1.6-0.1,3.2-0.2,4.6
					c-0.1,1.4,0,3,0.5,4.6c0.8,4.3,1.1,8.6,0.9,12.9c-0.4,3.9-0.7,7.8-0.8,11.6c-0.1,3.8-0.3,7.8-0.5,11.9c0,1.2-0.1,2.1-0.3,2.5
					c-1,2.3-1.4,4.6-1.1,6.9C1706.9,1000.4,1706.5,1002.7,1705.5,1005 M1707.4,856.3c0.2,2.3,0.4,4.4,0.6,6.5c0.2,2.1,0.2,4.1,0,6.2
					c0,1.6,0.9,2.1,2.8,1.2c0.8-0.2,1.6-0.5,2.3-0.9c0.7-0.4,1.5-0.7,2.3-0.9c6-1.2,11.2-3.5,15.7-6.8c4.5-3.3,8.8-6.8,12.9-10.5
					c3.9-3.5,6.6-7.4,8.2-11.7c1.5-4.3,2.8-8.8,3.9-13.6v-1.2c0-0.4-0.2-0.8-0.6-1.2c-2.3-2.7-4.7-5.1-7.2-7.4
					c-2.6-2.3-5.5-3.9-8.8-4.9c-2.5-0.8-4.9-1.6-7.2-2.3c-2.4-0.7-4.9-1.2-7.6-1.4c-1.2-0.2-2.4-0.4-3.5-0.6
					c-1.1-0.2-2.3-0.5-3.5-0.9c-1.4-0.4-2.8-0.8-4.2-1.1c-1.3-0.3-2.7-0.3-4.2,0.2c-2.1,0-2.8,0.9-2.2,2.8c0.8,2.1,1.2,4.1,1.2,6.2
					c0,2.1,0.1,4.1,0.3,6.2c0.6,7.2,0.6,14.3,0,21.3c-0.2,2.7-0.4,5.3-0.5,7.9C1708,851.7,1707.8,854.1,1707.4,856.3"/>
				<path class="st5" d="M1806.3,786.1c1-0.2,2-0.2,2.9,0.2s1.9,0.5,2.9,0.5c1,0,1.8,0.5,2.5,1.5c4.3,4.7,5.8,10,4.3,15.7
					c-2.1,6.6-5,12-8.9,16.3c-0.8,0.8-1.6,1.5-2.5,2c-0.8,0.5-1.6,1-2.5,1.4c-0.8,0.8-1.6,0.9-2.5,0.3c-0.4-0.4-0.6-1.1-0.6-2.2
					c0.2-1.6,0.7-3.2,1.4-4.6c0.7-1.4,1.5-2.9,2.3-4.3c1.2-2.3,1.7-3.6,1.4-4.2c-0.3-0.5-1.7-1-4.2-1.4c-2.7-0.4-4.7-1.6-6-3.7
					c-1.3-2.1-1.7-4.3-1.1-6.8c0.6-3.5,2.5-6.3,5.5-8.3c0.8-0.6,1.5-1.3,2.2-2.2C1804.2,785.5,1805.1,785.4,1806.3,786.1"/>
				<path class="st5" d="M1292.3,1006.7c0.5,1.1,0.3,1.8-0.7,2.1c-1.2,0.4-2.4,0.9-3.6,1.5c-1.2,0.6-2.5,0.7-4,0.5
					c-0.7-0.2-1.3-0.3-2-0.2c-0.7,0.1-1.3,0.1-2,0.1v0.2h-1.5c-0.4,0-0.9-0.1-1.5-0.2c-2.2-0.2-4.9-0.2-8.2,0.1
					c-3.2,0.3-6,0.6-8.2,0.9c-1.2,0.2-2.4,0.3-3.5,0.2c-1.1-0.1-2.3-0.3-3.5-0.5c-1,0-2-0.5-3-1.5c-0.3-0.4-0.7-0.9-1.2-1.2
					c-0.4-0.4-0.8-0.9-1-1.4c0-0.2-0.1-0.3-0.2-0.3c-0.9-0.6-1.3-1.2-1.4-1.9c-0.1-0.7-0.1-1.5-0.2-2.2c-0.1-0.9-0.1-1.7-0.1-2.5
					c0.1-0.8,0-1.6-0.1-2.5c-0.2-1.3-0.3-2.6-0.2-3.9c0.1-1.3,0.1-2.5,0.2-3.7c0-1.3,0-2.6-0.1-4c-0.1-1.3,0-2.6,0.1-4v-3.5v-4.4
					c0-1.5,0-2.9,0.1-4.3c0.1-1.4,0.1-2.5,0.1-3.4c0-0.5-0.1-0.9-0.2-1.2c-0.1-3.7-0.2-7.5-0.3-11.1c-0.1-3.7-0.2-7.5-0.2-11.3
					c0-2.5,0.1-5,0.2-7.4c0.1-2.4,0.2-4.9,0.2-7.4c-0.1-1.4-0.2-2.8-0.2-4.2c0-1.4,0.1-2.7,0.3-4l0.7-9.4c0.1-2.5,0.3-5,0.5-7.3
					c0.2-2.4,0.4-4.8,0.7-7.2c0-0.5,0-1,0.1-1.4c0.1-0.4,0-0.8-0.2-1.2c-0.2-0.5,0-1,0.7-1.3c3.5-1.2,7.4-1.4,11.5-0.5
					c1.1,0.3,2,1,2.8,2c1.2,1.2,2,2.5,2.5,3.9c0.4,1.4,0.8,2.8,1,4.2c0.2,0.9,0.3,1.8,0.2,2.7c-0.1,0.9-0.2,1.8-0.3,2.7
					c-0.2,1.7-0.4,3.3-0.4,4.9c-0.1,1.6,0,3.3,0.1,5c0.1,1.2,0.2,2.4,0.2,3.5c0,1.1-0.2,2.3-0.5,3.5c-0.1,0.3-0.2,0.8-0.2,1.5
					c0.2,1.9,0.3,3.8,0.2,5.7c-0.1,1.9-0.1,3.8-0.2,5.7v0.8c0,1.4,0,2.8,0.1,4.2c0.1,1.4,0,2.7-0.1,4c-0.1,1.2-0.1,2.3-0.1,3.4
					c0.1,1,0.1,2.2,0.1,3.4c0.1,1.3,0.1,2.6,0,3.9c-0.1,1.3-0.2,2.6-0.3,3.9c-0.2,0.7-0.2,1.3,0,2c0.2,1.4,0.2,2.8-0.2,4
					c-0.2,0.7-0.2,1.3,0,2c0.1,1.2,0.2,2.6,0.2,4.3c0,1.7-0.1,3.4-0.2,5.2c-0.1,1.8-0.2,3.6-0.3,5.3c-0.1,1.7-0.3,3.1-0.5,4.2
					c-0.7,4-1.2,7.7-1.5,11.2c0,0.6-0.1,1.2-0.3,1.8c0,0.7,0.1,1.1,0.2,1.2c0.1,0.2,0.5,0.2,1.3,0.2c3.5-0.2,7-0.1,10.6,0.2
					c3.5,0.4,7,0.8,10.6,1.2l3.3,0.5C1290.2,1004.3,1291.4,1005.2,1292.3,1006.7"/>
				<path class="st5" d="M1372.7,1010.9c0.1,0.4,0.1,1,0,1.7c-0.2,0.7-0.4,1-0.7,1.1c-0.2,0.1-0.6-0.2-1.2-0.7
					c-0.6-0.6-1-0.8-1.5-0.7c-0.9,0.5-1.5,0.5-2-0.2c-0.4-0.7-1-1.1-1.6-1.3c-0.4-0.2-0.7-0.5-0.9-0.9c-0.2-0.4-0.3-0.9-0.4-1.4
					c-0.1-1.4-0.4-2.8-0.7-4.1c-0.4-1.3-0.7-2.6-0.9-4c-0.6-2.5-1.1-5-1.6-7.3c-0.5-2.4-1-4.8-1.4-7.2c-0.6-3.6-1.2-7.2-1.8-10.8
					c-0.7-3.6-1.3-7.1-2-10.6c-0.2-1.5-0.5-2.4-0.8-2.6c-0.3-0.2-1.2-0.1-2.5,0.2c-1.5,0.3-3,0.6-4.5,0.9c-1.4,0.3-2.9,0.5-4.3,0.6
					c-1.5,0-3,0.1-4.3,0.4c-1.3,0.3-2.7,0.5-4.1,0.7c-0.6,0.2-1.1,0.3-1.6,0.2c-0.5-0.1-1-0.1-1.6-0.2c-0.9-0.2-1.5-0.2-1.8,0.1
					c-0.3,0.3-0.6,1-0.8,2.2c-0.2,1.1-0.5,2.2-0.7,3.2c-0.3,1-0.6,2.1-0.9,3.2c-0.3,1.2-0.6,2.3-0.7,3.4c-0.2,1-0.4,2.2-0.6,3.4
					c-0.2,1.2-0.5,2.4-0.8,3.5c-0.3,1.2-0.7,2.3-1,3.5c-0.6,1.9-1,3.7-1.4,5.5c-0.4,1.8-0.9,3.7-1.4,5.5c-0.2,0.9-0.4,1.7-0.7,2.5
					c-0.2,0.8-0.5,1.5-0.8,2.3c-0.2,0.5-0.4,1-0.5,1.5c-0.1,0.4-0.3,0.9-0.5,1.5c0,0.2-0.2,0.7-0.7,1.3c-0.4,0.7-0.9,1.3-1.4,2.1
					c-0.5,0.7-1,1.4-1.5,2.1c-0.5,0.7-0.8,1-0.9,1.2l-2,1.5c-0.7,0.4-1.2,0.6-1.5,0.5c-0.3-0.2-0.6-0.3-0.9-0.2
					c-0.3,0.1-0.6,0.2-0.9,0.3c-0.3,0.1-0.8,0.2-1.3,0.2l0.2-0.3c-1.1,0-2.1,0-3.1,0.1c-1,0.1-1.6,0.1-1.8,0.1
					c-1.5-0.2-2.1-1.3-1.8-3.1c0.6-2.1,0.9-4.2,1.2-6.2c0.2-2,0.6-4,1.2-6c0.3-1.4,0.7-2.9,1-4.3c0.3-1.4,0.6-2.9,0.8-4.3l2.5-11.7
					c0.2-1.1,0.5-2.1,0.7-3.1c0.3-1,0.5-2,0.7-3.1c0.2-2.3,0.7-4.5,1.3-6.7c0.7-2.1,1.3-4.3,1.8-6.5c0.5-2.3,1.1-4.6,1.6-6.8
					c0.5-2.3,1-4.6,1.3-7c0.2-1.3,0.5-2.7,0.8-4c0.3-1.4,0.7-2.7,1.2-3.9c0.7-2.2,1.3-4.4,1.9-6.6c0.6-2.2,1.2-4.4,1.7-6.6l2.5-7.9
					c0.5-2,1.1-4,1.6-6.1c0.5-2.1,1-4.2,1.6-6.3c0.2-0.9,0.5-1.7,0.7-2.6c0.3-0.8,0.6-1.7,1.1-2.6c0.4-0.8,0.8-1.6,1.1-2.4
					c0.3-0.8,0.5-1.7,0.6-2.6c0.1-1.2,0.4-2.3,0.8-3.3c0.4-1,0.8-2.1,1.2-3.3c0.1-0.3,0.3-0.5,0.5-0.7c0.2-0.1,0.4-0.3,0.7-0.5
					c0.7-0.2,1.3-0.4,1.9-0.5c0.6-0.1,1.2-0.4,1.7-0.8c0.2-0.2,0.6-0.2,1.2,0c0.1,0,0.5,0.1,1.2,0.4c0.7,0.3,1.5,0.6,2.4,0.9
					l0.2-0.7l0.8,0.3c0.7,0.3,1.4,0.6,2.1,0.7c0.8,0.2,1.5,0.4,2.3,0.6c2.6,0.9,4.5,2.6,5.4,5.3c0.4,1.2,0.8,2.4,1,3.6
					c0.2,1.2,0.4,2.4,0.7,3.6l1.8,10.6c0.4,2.9,0.9,5.6,1.2,8.3c0.4,2.7,0.7,5.5,1.1,8.3c0.2,1.9,0.5,3.7,1,5.5
					c0.4,1.8,0.8,3.7,1.2,5.5c0.3,1.9,0.7,3.8,1,5.7c0.3,1.9,0.7,3.8,1.2,5.7c0.5,2.3,1,4.6,1.5,6.9c0.4,2.3,0.9,4.7,1.5,7.1
					l0.5,3.1c0,1,0.2,2,0.5,2.9c0.3,0.9,0.4,1.8,0.3,2.7c0,2.1,0.2,4.1,0.5,6c0.3,1.9,0.6,3.8,0.8,5.7c0.3,1.8,0.6,3.5,0.8,5.2
					c0.2,1.7,0.4,3.4,0.7,5.2l1.2,7.8c0.1,0.9,0.2,1.8,0.3,2.6c0.1,0.9,0.2,1.8,0.2,2.6L1372.7,1010.9z M1352.9,954.4
					c0.9,0.1,1.3-0.4,1.2-1.5l-1.2-7.3c-0.6-2.5-1-5.1-1.4-7.7c-0.4-2.6-0.8-5.1-1.2-7.7c-0.2-1.8-0.4-3.5-0.7-5.1
					c-0.2-1.6-0.6-3.3-1.2-4.9c-0.3-0.9-0.6-1.8-0.9-2.9c-0.3-1-0.5-2.1-0.7-3.1c-0.3-1.2-0.6-2.4-0.9-3.5c-0.3-1.2-0.5-2.3-0.7-3.5
					c0-0.5-0.2-0.8-0.5-0.8c-0.3-0.1-0.6,0.2-0.8,0.8l-0.8,3.1c-0.4,1.5-0.9,3.1-1.2,4.7c-0.4,1.6-0.7,3.2-1.1,4.9l-1.3,6.8
					c-1.9,7.2-3.5,14.2-5,21.3c-0.2,1-0.4,2-0.7,3c-0.2,1-0.4,2-0.7,3c0,0.8,0.3,1.2,1,1.2c0.8-0.1,1.5-0.2,2.2-0.2h2.2
					c2.4-0.2,4.8-0.4,7.2-0.7C1348,954,1350.4,954.1,1352.9,954.4 M1371.2,1011.5c0.2,0,0.3-0.1,0.3-0.3c0-0.3-0.1-0.6-0.3-0.7
					c-0.2,0-0.3,0.1-0.3,0.3C1370.8,1011.1,1370.9,1011.3,1371.2,1011.5"/>
				<path class="st5" d="M1050.9,784.6c5.9,0,10.8,4.8,10.8,10.8c0,5.9-4.8,10.8-10.8,10.8c-31.2,0-60.6,12.2-82.7,34.2
					C946.2,862.4,934,891.8,934,923c0,31.2,12.2,60.6,34.2,82.7c22.1,22.1,51.4,34.2,82.7,34.2s60.6-12.2,82.7-34.2
					c22.1-22.1,34.2-51.4,34.2-82.7c0-5.9,4.8-10.8,10.8-10.8s10.8,4.8,10.8,10.8c0,37-14.4,71.7-40.5,97.9
					c-26.1,26.1-60.9,40.5-97.9,40.5c-37,0-71.7-14.4-97.9-40.5c-26.1-26.1-40.5-60.9-40.5-97.9s14.4-71.7,40.5-97.9
					C979.2,799,1013.9,784.6,1050.9,784.6"/>
				<path class="st5" d="M1050.9,981.3c-16.1,0-30.6-6.5-41.2-17.1c-10.5-10.5-17.1-25.1-17.1-41.2c0-16.1,6.5-30.6,17.1-41.2
					c8.5-8.5,19.6-14.4,32-16.4c5.2-0.8,9.1-5.3,9.1-10.6c0-6.6-5.9-11.7-12.5-10.6c-17,2.7-32.3,10.7-43.9,22.4
					c-14.4,14.4-23.4,34.4-23.4,56.4c0,22,8.9,42,23.4,56.4c14.4,14.4,34.4,23.4,56.4,23.4c22,0,42-8.9,56.4-23.4
					c11.7-11.7,19.7-26.9,22.4-43.9c1-6.5-4-12.5-10.6-12.5c-5.3,0-9.8,3.9-10.6,9.1c-2,12.4-7.9,23.5-16.4,32
					C1081.5,974.7,1067,981.3,1050.9,981.3"/>
				<g class="st6">
					<g>
						<defs>
							<rect id="SVGID_9_" x="1064.9" y="936.6" width="139.5" height="138.3"/>
						</defs>
						<clipPath id="SVGID_10_">
							<use xlink:href="#SVGID_9_"  style="overflow:visible;"/>
						</clipPath>
						<path class="st7" d="M1166.2,1073.8l-34.7-35c-0.8-0.8-0.9-1.8-0.9-2.8v-30.3c0-0.4-0.5-0.9-0.5-1.4c0-0.5,0-1,0.2-1.5
							c0.6-1.5,2-2.5,3.6-2.5l5.2,0l26.4-0.1c1.1,0,2.1,0.4,2.8,1.2l35,35c1.1,1.1,1.5,2.9,0.9,4.3c-0.6,1.5-2.1,2.5-3.7,2.5
							l-18.3,0.1l-8.6,0v27.7c0,1.6-1.3,3.1-2.8,3.7C1169.3,1075.2,1167.3,1074.9,1166.2,1073.8"/>
						<path class="st8" d="M1182.1,1043.2l-8.5,0v10.9l-43-42.6l-65.7-65c4-2.4,7.4-5.8,9.7-9.9l64.3,63.6L1182.1,1043.2z"/>
					</g>
				</g>
				<g class="st9">
					<g>
						<defs>
							<rect id="SVGID_11_" x="1023.6" y="895.7" width="54.7" height="54.6"/>
						</defs>
						<clipPath id="SVGID_12_">
							<use xlink:href="#SVGID_11_"  style="overflow:visible;"/>
						</clipPath>
						<path class="st10" d="M1078.2,923c0,5-1.3,9.6-3.6,13.6c-2.3,4.1-5.7,7.5-9.7,9.9c-4.1,2.5-8.9,3.9-14,3.9
							c-15.1,0-27.3-12.2-27.3-27.3c0-15.1,12.2-27.3,27.3-27.3S1078.2,907.9,1078.2,923"/>
					</g>
				</g>
				<path class="st5" d="M1049.3,910.4l30.4-30.4l30.4-30.4l30.4-30.4l30.4-30.4c0.5-0.5,1.1-1,1.7-1.4c0.6-0.4,1.2-0.7,1.9-1
					c0.6-0.3,1.3-0.5,2-0.6c0.7-0.1,1.4-0.2,2.1-0.2c0.7,0,1.4,0.1,2.1,0.2c0.7,0.1,1.3,0.3,2,0.6c0.6,0.3,1.3,0.6,1.9,1
					c0.6,0.4,1.2,0.9,1.7,1.4c1.1,1,1.8,2.3,2.4,3.6s0.8,2.7,0.8,4c0,1.4-0.3,2.8-0.8,4s-1.3,2.5-2.4,3.6l-30.4,30.4l-30.4,30.4
					l-30.4,30.4l-30.4,30.4l-13.3,2l-4-3.9L1049.3,910.4z"/>
				<path class="st5" d="M1117.7,785.6c2.8,0,5.5,1,7.6,3.2l60.8,60.8c4.2,4.2,4.2,11,0,15.2c-4.2,4.2-11,4.2-15.2,0l-60.8-60.8
					c-4.2-4.2-4.2-11,0-15.2C1112.2,786.7,1115,785.6,1117.7,785.6"/>
			</g>
		</g>
	</g>
</g>
</svg>
